# xmcd
#
# Track frame offsets: 
#        187
#        14275
#        31035
#        48442
#        65065
#        82800
#        98927
#        115375
#        133045
#        150220
#        169015
#        186745
#        203847
#
# Disc length: 2925 seconds
#
# Revision: 4
# Processed by: cddbd v1.5.2PL0 Copyright (c) Steve Scherf et al.
# Submitted via: ExactAudioCopy v0.99pb4
#
DISCID=a70b6b0d
DTITLE=W.A.S.P. - W.A.S.P. (Japanese VICP-60149)
DYEAR=1984
DGENRE=Heavy Metal
TTITLE0=Animal (Fuck Like A Beast)
TTITLE1=I Wanna Be Somebody
TTITLE2=L.O.V.E. Machine
TTITLE3=The Flame
TTITLE4=B.A.D.
TTITLE5=School Daze
TTITLE6=Hellion
TTITLE7=Sleeping (In The Fire)
TTITLE8=On Your Knees
TTITLE9=Tormentor
TTITLE10=The Torture Never Stops
TTITLE11=Show No Mercy
TTITLE12=Paint It Black
EXTD=YEAR: 1984
EXTT0=
EXTT1=
EXTT2=
EXTT3=
EXTT4=
EXTT5=
EXTT6=
EXTT7=
EXTT8=
EXTT9=
EXTT10=
EXTT11=
EXTT12=
PLAYORDER=
